<svg aria-hidden="true" style="position: absolute; width: 0; height: 0; overflow: hidden;" version="1.1" xmlns="http://www.w3.org/2000/svg" xmlns:xlink="http://www.w3.org/1999/xlink">
<defs>
<symbol id="icon-Sunset" viewBox="0 0 32 32">
<path d="M16 5.088c0.512 0 0.928-0.416 0.928-0.928v-3.232c0-0.512-0.416-0.928-0.928-0.928-0.528 0-0.944 0.416-0.944 0.928v3.232c0 0.512 0.416 0.928 0.944 0.928z"></path>
<path d="M31.056 15.056h-3.232c-0.512 0-0.928 0.416-0.928 0.944 0 0.512 0.416 0.928 0.928 0.928h3.232c0.512 0 0.944-0.416 0.944-0.928 0-0.528-0.432-0.944-0.944-0.944z"></path>
<path d="M5.088 16c0-0.528-0.416-0.944-0.928-0.944h-3.232c-0.512 0-0.928 0.416-0.928 0.944 0 0.512 0.416 0.928 0.928 0.928h3.232c0.512 0 0.928-0.416 0.928-0.928z"></path>
<path d="M24.368 8.56c0.24 0 0.48-0.096 0.656-0.272l2.288-2.288c0.352-0.368 0.352-0.96 0-1.328-0.368-0.352-0.96-0.352-1.328 0l-2.288 2.288c-0.368 0.368-0.368 0.96 0 1.328 0.192 0.176 0.432 0.272 0.672 0.272z"></path>
<path d="M25.024 23.696c-0.368-0.368-0.96-0.368-1.328 0s-0.368 0.96 0 1.328l2.288 2.288c0.176 0.176 0.416 0.272 0.656 0.272s0.48-0.096 0.672-0.272c0.352-0.368 0.352-0.96 0-1.328l-2.288-2.288z"></path>
<path d="M6.96 23.696l-2.288 2.288c-0.352 0.368-0.352 0.96 0 1.328 0.192 0.176 0.432 0.272 0.672 0.272s0.48-0.096 0.656-0.272l2.288-2.288c0.368-0.368 0.368-0.96 0-1.328s-0.96-0.368-1.328 0z"></path>
<path d="M6.96 8.288c0.176 0.176 0.416 0.272 0.656 0.272s0.48-0.096 0.672-0.272c0.368-0.368 0.368-0.96 0-1.328l-2.288-2.288c-0.368-0.352-0.96-0.352-1.328 0-0.352 0.368-0.352 0.96 0 1.328l2.288 2.288z"></path>
<path d="M20.176 5.936c0.112 0.048 0.24 0.064 0.352 0.064 0.368 0 0.72-0.224 0.864-0.576l1.248-2.976c0.192-0.48-0.032-1.024-0.512-1.232-0.48-0.192-1.024 0.032-1.216 0.512l-1.248 2.976c-0.192 0.48 0.032 1.024 0.512 1.232z"></path>
<path d="M30.256 20.912l-2.976-1.248c-0.48-0.192-1.024 0.032-1.232 0.512-0.192 0.48 0.032 1.024 0.512 1.216l2.976 1.248c0.128 0.048 0.24 0.064 0.368 0.064 0.368 0 0.72-0.208 0.864-0.576 0.192-0.48-0.032-1.024-0.512-1.216z"></path>
<path d="M11.808 26.048c-0.48-0.192-1.024 0.032-1.216 0.512l-1.248 2.976c-0.192 0.48 0.032 1.040 0.512 1.232 0.112 0.048 0.24 0.064 0.352 0.064 0.368 0 0.72-0.208 0.864-0.576l1.248-2.976c0.192-0.48-0.032-1.024-0.512-1.232z"></path>
<path d="M1.728 11.072l2.976 1.248c0.112 0.048 0.24 0.064 0.352 0.064 0.368 0 0.72-0.208 0.88-0.576 0.192-0.48-0.032-1.024-0.512-1.216l-2.976-1.248c-0.48-0.192-1.040 0.032-1.232 0.512s0.032 1.024 0.512 1.216z"></path>
<path d="M26.064 11.84c0.144 0.352 0.496 0.576 0.864 0.576 0.128 0 0.24-0.032 0.368-0.080l2.976-1.232c0.48-0.192 0.704-0.736 0.512-1.216-0.208-0.48-0.752-0.704-1.232-0.512l-2.976 1.232c-0.48 0.192-0.704 0.752-0.512 1.232z"></path>
<path d="M21.376 26.576c-0.192-0.48-0.752-0.704-1.232-0.512s-0.704 0.752-0.496 1.232l1.232 2.976c0.144 0.368 0.496 0.576 0.864 0.576 0.112 0 0.24-0.016 0.352-0.064 0.48-0.208 0.704-0.752 0.512-1.232l-1.232-2.976z"></path>
<path d="M5.92 20.144c-0.192-0.48-0.752-0.704-1.232-0.496l-2.976 1.232c-0.48 0.192-0.704 0.736-0.512 1.216 0.16 0.368 0.496 0.576 0.864 0.576 0.128 0 0.24-0.016 0.368-0.064l2.976-1.232c0.48-0.192 0.704-0.752 0.512-1.232z"></path>
<path d="M10.608 5.408c0.144 0.368 0.496 0.576 0.864 0.576 0.128 0 0.24-0.016 0.368-0.064 0.48-0.192 0.704-0.752 0.496-1.232l-1.232-2.976c-0.192-0.48-0.736-0.704-1.216-0.512-0.48 0.208-0.704 0.752-0.512 1.232l1.232 2.976z"></path>
<path d="M17.136 28.576l-0.208 0.208v-4.16c4.352-0.464 7.744-4.16 7.744-8.624 0-4.8-3.888-8.688-8.672-8.688-4.8 0-8.688 3.888-8.688 8.688 0 4.464 3.392 8.16 7.744 8.624v4.224l-0.288-0.288c-0.368-0.368-0.96-0.352-1.328 0.016s-0.352 0.976 0.016 1.328l1.872 1.824c0.192 0.176 0.416 0.272 0.656 0.272s0.48-0.096 0.672-0.288l1.808-1.808c0.368-0.368 0.368-0.96 0-1.328s-0.96-0.368-1.328 0zM9.184 16c0-3.76 3.056-6.816 6.816-6.816 3.744 0 6.8 3.056 6.8 6.816 0 3.424-2.56 6.288-5.872 6.736v-2.224c0-0.512-0.416-0.928-0.928-0.928-0.528 0-0.944 0.416-0.944 0.928v2.224c-3.312-0.448-5.872-3.312-5.872-6.736z"></path>
</symbol>
<symbol id="icon-Sunrise" viewBox="0 0 32 32">
<path d="M16 5.088c0.512 0 0.928-0.416 0.928-0.928v-3.232c0-0.512-0.416-0.928-0.928-0.928-0.528 0-0.944 0.416-0.944 0.928v3.232c0 0.512 0.416 0.928 0.944 0.928z"></path>
<path d="M31.056 15.056h-3.232c-0.512 0-0.928 0.416-0.928 0.944 0 0.512 0.416 0.928 0.928 0.928h3.232c0.512 0 0.944-0.416 0.944-0.928 0-0.528-0.432-0.944-0.944-0.944z"></path>
<path d="M5.088 16c0-0.528-0.416-0.944-0.928-0.944h-3.232c-0.512 0-0.928 0.416-0.928 0.944 0 0.512 0.416 0.928 0.928 0.928h3.232c0.512 0 0.928-0.416 0.928-0.928z"></path>
<path d="M24.368 8.56c0.24 0 0.48-0.096 0.656-0.272l2.288-2.288c0.352-0.368 0.352-0.96 0-1.328-0.368-0.352-0.96-0.352-1.328 0l-2.288 2.288c-0.368 0.368-0.368 0.96 0 1.328 0.192 0.176 0.432 0.272 0.672 0.272z"></path>
<path d="M25.024 23.696c-0.368-0.368-0.96-0.368-1.328 0s-0.368 0.96 0 1.328l2.288 2.288c0.176 0.176 0.416 0.272 0.656 0.272s0.48-0.096 0.672-0.272c0.352-0.368 0.352-0.96 0-1.328l-2.288-2.288z"></path>
<path d="M6.96 23.696l-2.288 2.288c-0.352 0.368-0.352 0.96 0 1.328 0.192 0.176 0.432 0.272 0.672 0.272s0.48-0.096 0.656-0.272l2.288-2.288c0.368-0.368 0.368-0.96 0-1.328s-0.96-0.368-1.328 0z"></path>
<path d="M6.96 8.288c0.176 0.176 0.416 0.272 0.656 0.272s0.48-0.096 0.672-0.272c0.368-0.368 0.368-0.96 0-1.328l-2.288-2.288c-0.368-0.352-0.96-0.352-1.328 0-0.352 0.368-0.352 0.96 0 1.328l2.288 2.288z"></path>
<path d="M20.176 5.936c0.112 0.048 0.24 0.064 0.352 0.064 0.368 0 0.72-0.224 0.864-0.576l1.248-2.976c0.192-0.48-0.032-1.024-0.512-1.232-0.48-0.192-1.024 0.032-1.216 0.512l-1.248 2.976c-0.192 0.48 0.032 1.024 0.512 1.232z"></path>
<path d="M30.256 20.912l-2.976-1.248c-0.48-0.192-1.024 0.032-1.232 0.512-0.192 0.48 0.032 1.024 0.512 1.216l2.976 1.248c0.128 0.048 0.24 0.064 0.368 0.064 0.368 0 0.72-0.208 0.864-0.576 0.192-0.48-0.032-1.024-0.512-1.216z"></path>
<path d="M11.808 26.048c-0.48-0.192-1.024 0.032-1.216 0.512l-1.248 2.976c-0.192 0.48 0.032 1.040 0.512 1.232 0.112 0.048 0.24 0.064 0.352 0.064 0.368 0 0.72-0.208 0.864-0.576l1.248-2.976c0.192-0.48-0.032-1.024-0.512-1.232z"></path>
<path d="M1.728 11.072l2.976 1.248c0.112 0.048 0.24 0.064 0.352 0.064 0.368 0 0.72-0.208 0.88-0.576 0.192-0.48-0.032-1.024-0.512-1.216l-2.976-1.248c-0.48-0.192-1.040 0.032-1.232 0.512s0.032 1.024 0.512 1.216z"></path>
<path d="M26.064 11.84c0.144 0.352 0.496 0.576 0.864 0.576 0.128 0 0.24-0.032 0.368-0.080l2.976-1.232c0.48-0.192 0.704-0.736 0.512-1.216-0.208-0.48-0.752-0.704-1.232-0.512l-2.976 1.232c-0.48 0.192-0.704 0.752-0.512 1.232z"></path>
<path d="M21.376 26.576c-0.192-0.48-0.752-0.704-1.232-0.512s-0.704 0.752-0.496 1.232l1.232 2.976c0.144 0.368 0.496 0.576 0.864 0.576 0.112 0 0.24-0.016 0.352-0.064 0.48-0.208 0.704-0.752 0.512-1.232l-1.232-2.976z"></path>
<path d="M5.92 20.144c-0.192-0.464-0.752-0.704-1.232-0.496l-2.976 1.232c-0.48 0.192-0.704 0.736-0.512 1.216 0.144 0.368 0.496 0.576 0.864 0.576 0.128 0 0.24-0.016 0.368-0.064l2.976-1.232c0.48-0.192 0.704-0.752 0.512-1.232z"></path>
<path d="M10.608 5.408c0.144 0.368 0.496 0.576 0.864 0.576 0.128 0 0.24-0.016 0.368-0.064 0.48-0.192 0.704-0.752 0.496-1.232l-1.232-2.976c-0.192-0.48-0.736-0.704-1.216-0.512-0.48 0.208-0.704 0.752-0.512 1.232l1.232 2.976z"></path>
<path d="M16.928 24.624c4.352-0.464 7.744-4.16 7.744-8.624 0-4.8-3.888-8.688-8.672-8.688-4.8 0-8.688 3.888-8.688 8.688 0 4.464 3.392 8.16 7.744 8.624v6.432c0 0.512 0.416 0.944 0.944 0.944 0.512 0 0.928-0.432 0.928-0.944v-6.432zM9.184 16c0-3.76 3.056-6.816 6.816-6.816 3.744 0 6.8 3.056 6.8 6.816 0 3.424-2.56 6.288-5.872 6.736v-3.568l0.208 0.208c0.368 0.368 0.96 0.368 1.328 0s0.368-0.96 0-1.328l-1.808-1.824c-0.368-0.352-0.96-0.352-1.328 0l-1.872 1.824c-0.368 0.352-0.384 0.944-0.016 1.328 0.176 0.176 0.432 0.272 0.672 0.272s0.464-0.080 0.656-0.256l0.288-0.288v3.632c-3.312-0.448-5.872-3.312-5.872-6.736z"></path>
</symbol>
<symbol id="icon-wind" viewBox="0 0 38 32">
<path fill="#fff" style="fill: var(--color1, #fff)" opacity="0.54" d="M30.321 0c-1.821 0-3.603 0.613-5.022 1.744-0.479 0.402-0.556 1.112-0.172 1.591s1.093 0.556 1.591 0.172c1.016-0.824 2.3-1.265 3.603-1.265 3.162 0 5.75 2.587 5.75 5.75 0 3.182-2.587 5.769-5.75 5.769h-21.121c-0.613 0-1.131 0.498-1.131 1.112 0 0.633 0.518 1.131 1.131 1.131h21.121c4.408 0 8.012-3.584 8.012-8.012 0-4.408-3.603-7.992-8.012-7.992z"></path>
<path fill="#fff" style="fill: var(--color1, #fff)" opacity="0.54" d="M7.053 11.519h11.998c0.613 0 1.112-0.498 1.112-1.131 0-0.613-0.498-1.112-1.112-1.112h-11.998c-0.633 0-1.131 0.498-1.131 1.112 0 0.633 0.498 1.131 1.131 1.131z"></path>
<path fill="#fff" style="fill: var(--color1, #fff)" opacity="0.54" d="M18.726 18.266h-17.614c-0.613 0-1.112 0.498-1.112 1.112 0 0.633 0.498 1.131 1.112 1.131h17.614c2.549 0 4.619 2.070 4.619 4.619s-2.070 4.619-4.619 4.619c-1.035 0-2.070-0.364-2.894-1.016-0.479-0.383-1.188-0.307-1.572 0.172s-0.307 1.188 0.172 1.572c1.207 0.977 2.741 1.514 4.293 1.514 3.795 0 6.862-3.086 6.862-6.862 0-3.795-3.067-6.862-6.862-6.862z"></path>
<path fill="#fff" style="fill: var(--color1, #fff)" opacity="0.54" d="M1.112 11.519h1.514c0.613 0 1.131-0.498 1.131-1.131 0-0.613-0.518-1.112-1.131-1.112h-1.514c-0.613 0-1.112 0.498-1.112 1.112 0 0.633 0.498 1.131 1.112 1.131z"></path>
<path fill="#fff" style="fill: var(--color1, #fff)" opacity="0.54" d="M14.662 23.843c0-0.613-0.498-1.112-1.112-1.112h-6.747c-0.613 0-1.131 0.498-1.131 1.112 0 0.633 0.518 1.131 1.131 1.131h6.747c0.613 0 1.112-0.498 1.112-1.131z"></path>
</symbol>
<symbol id="icon-moisture" viewBox="0 0 30 32">
<path fill="#fff" style="fill: var(--color1, #fff)" opacity="0.54" d="M27.648 9.392c-0.608-1.024-1.232-1.984-1.808-2.72-0.816-1.072-1.312-1.456-1.856-1.456-0.528 0-0.96 0.368-1.424 0.912-0.352 0.4-0.784 0.96-1.216 1.616-0.64 0.944-1.248 1.968-1.76 2.976-0.56-1.072-1.072-1.984-1.456-2.64-1.216-2.064-2.496-4.016-3.616-5.472-1.856-2.416-2.544-2.608-3.056-2.608-0.496 0-1.2 0.192-3.040 2.608-1.136 1.456-2.416 3.408-3.616 5.472-1.44 2.464-4.8 8.624-4.8 12.448 0 6.32 5.136 11.472 11.456 11.472 5.936 0 10.832-4.544 11.408-10.32 0.368 0.064 0.736 0.096 1.12 0.096 3.344 0 6.064-2.72 6.064-6.064 0-1.904-1.504-4.784-2.4-6.32zM11.456 30.112c-5.28 0-9.584-4.304-9.584-9.584 0-2.24 1.6-6.368 4.272-11.040 2.4-4.176 4.528-6.848 5.312-7.52 0.8 0.672 2.928 3.344 5.312 7.52 2.688 4.672 4.288 8.8 4.288 11.040 0 5.28-4.304 9.584-9.6 9.584zM23.984 19.904c-0.368 0-0.736-0.048-1.088-0.144-0.208-2.064-1.2-4.624-2.256-6.928 1.040-2.32 2.576-4.608 3.344-5.488 0.464 0.544 1.312 1.712 2.256 3.36 1.216 2.16 1.936 4.016 1.936 5.008 0 2.304-1.888 4.192-4.192 4.192z"></path>
</symbol>
<symbol id="icon-pressure" viewBox="0 0 28 32">
<path fill="#fff" style="fill: var(--color1, #fff)" opacity="0.54" d="M16.528 4.112c0.208-0.384 0.32-0.832 0.32-1.312 0-1.552-1.248-2.8-2.8-2.8s-2.816 1.248-2.816 2.8c0 0.48 0.112 0.928 0.32 1.312-6.56 1.184-11.552 6.928-11.552 13.824 0 7.76 6.288 14.064 14.048 14.064 7.744 0 14.048-6.304 14.048-14.064 0-6.896-5.008-12.64-11.568-13.824zM14.048 1.872c0.512 0 0.928 0.416 0.928 0.928 0 0.528-0.416 0.944-0.928 0.944-0.528 0-0.944-0.416-0.944-0.944 0-0.512 0.416-0.928 0.944-0.928zM14.048 30.112c-6.72 0-12.176-5.456-12.176-12.176 0-6.704 5.456-12.176 12.176-12.176 6.704 0 12.176 5.472 12.176 12.176 0 6.72-5.472 12.176-12.176 12.176z"></path>
<path fill="#fff" style="fill: var(--color1, #fff)" opacity="0.54" d="M21.376 10.688c-0.016-0.016-0.032-0.032-0.048-0.048s-0.032-0.032-0.048-0.048c-1.856-1.84-4.416-2.976-7.232-2.976-2.832 0-5.408 1.152-7.28 2.992 0 0.016-0.016 0.016-0.016 0.032-0.016 0-0.016 0.016-0.016 0.016-1.872 1.872-3.024 4.448-3.024 7.28 0 0.528 0.432 0.944 0.944 0.944h1.056c0.528 0 0.944-0.416 0.944-0.944 0-0.512-0.416-0.928-0.944-0.928h-0.064c0.176-1.632 0.832-3.12 1.808-4.352l0.048 0.064c0.176 0.176 0.416 0.272 0.656 0.272s0.48-0.096 0.672-0.272c0.368-0.368 0.368-0.96 0-1.328l-0.048-0.048c1.2-0.976 2.688-1.616 4.32-1.792v0.064c0 0.512 0.416 0.944 0.944 0.944 0.512 0 0.928-0.432 0.928-0.944v-0.064c1.632 0.176 3.12 0.816 4.336 1.792l-0.048 0.048c-0.368 0.368-0.368 0.96 0 1.328 0.176 0.176 0.416 0.272 0.656 0.272s0.48-0.096 0.656-0.272l0.064-0.064c0.976 1.216 1.616 2.704 1.792 4.336h-0.080c-0.512 0-0.928 0.416-0.928 0.944 0 0.512 0.416 0.928 0.928 0.928 0 0 1.072 0 1.072 0 0.528 0 0.944-0.416 0.944-0.928 0-2.832-1.152-5.392-2.992-7.248z"></path>
<path fill="#fff" style="fill: var(--color1, #fff)" opacity="0.54" d="M18.288 13.696c-0.368-0.368-0.96-0.368-1.328 0l-3.904 3.904c-0.432-0.208-0.928-0.304-1.408-0.256-0.512 0.032-0.912 0.48-0.88 0.992 0.048 0.512 0.496 0.912 1.008 0.864 0.272-0.016 0.544 0.080 0.736 0.272 0.176 0.192 0.288 0.464 0.272 0.72-0.032 0.528 0.352 0.96 0.88 0.992 0.016 0 0.032 0 0.048 0 0.496 0 0.912-0.384 0.944-0.88 0.016-0.48-0.080-0.944-0.272-1.376l3.904-3.904c0.368-0.368 0.368-0.96 0-1.328z"></path>
<path fill="#fff" style="fill: var(--color1, #fff)" opacity="0.54" d="M19.424 24.672h-10.752c-0.528 0-0.944 0.432-0.944 0.944s0.416 0.944 0.944 0.944h10.752c0.512 0 0.928-0.432 0.928-0.944s-0.416-0.944-0.928-0.944z"></path>
</symbol>
<symbol id="icon-quotes" viewBox="0 0 35 32">
<path fill="#fff" style="fill: var(--color1, #fff)" opacity="0.2" d="M21.733 13.926v-13.926h12.862v11c0 5.951-0.707 10.264-2.136 12.932-1.862 3.557-4.817 6.246-8.864 8.066l-2.934-4.67c2.444-1.022 4.243-2.556 5.398-4.6 1.155-1.995 1.799-4.929 1.939-8.801h-6.267zM1.064 13.926v-13.926h12.862v11c0 5.951-0.707 10.264-2.129 12.932-1.869 3.557-4.824 6.246-8.871 8.066l-2.927-4.67c2.444-1.022 4.243-2.556 5.398-4.6 1.155-1.995 1.799-4.929 1.932-8.801h-6.267z"></path>
</symbol>
<symbol id="icon-icon-location" viewBox="0 0 32 32">
<path stroke-linejoin="miter" stroke-linecap="butt" stroke-miterlimit="4" stroke-width="2.9091" d="M27.636 16c0 6.427-5.21 11.636-11.636 11.636s-11.636-5.21-11.636-11.636c0-6.427 5.21-11.636 11.636-11.636s11.636 5.21 11.636 11.636z"></path>
<path d="M14.545 0h2.909v5.818h-2.909v-5.818z"></path>
<path d="M14.545 26.182h2.909v5.818h-2.909v-5.818z"></path>
<path d="M5.818 14.545v2.909h-5.818v-2.909h5.818z"></path>
<path d="M32 14.545v2.909h-5.818v-2.909h5.818z"></path>
</symbol>
<symbol id="icon-cloudy" viewBox="0 0 32 32">
<path fill="#eee1dc" style="fill: var(--color2, #eee1dc)" d="M26.88 20.955c-3.31 0-11.008-2.423-14.427-5.44-1.253-1.115-1.893-2.267-1.893-3.419 0-2.542 2.075-4.617 4.626-4.617 0.43 0 0.869 0.055 1.28 0.174 0.622-1.819 2.35-3.109 4.37-3.109 1.673 0 3.2 0.905 4.014 2.322 0.137-0.009 0.265-0.018 0.393-0.018 2.551 0 4.626 2.075 4.626 4.626 0 0.302-0.027 0.594-0.082 0.887 1.344 0.832 2.213 2.322 2.213 3.941 0 1.216-0.494 2.35-1.381 3.2-0.814 0.768-1.92 1.271-3.136 1.417-0.174 0.027-0.375 0.037-0.603 0.037z"></path>
<path fill="#e0d2cd" style="fill: var(--color3, #e0d2cd)" d="M29.787 12.361c0.055-0.293 0.082-0.585 0.082-0.887 0-2.551-2.075-4.626-4.626-4.626-0.128 0-0.256 0.009-0.393 0.018-0.741-1.289-2.075-2.158-3.575-2.304v15.323c2.203 0.677 4.27 1.070 5.605 1.070 0.229 0 0.43-0.009 0.603-0.037 1.216-0.146 2.322-0.649 3.136-1.417 0.887-0.85 1.381-1.984 1.381-3.2 0-1.618-0.869-3.109-2.213-3.941z"></path>
<path fill="#fff4f4" style="fill: var(--color4, #fff4f4)" d="M13.312 27.447c-1.061 0-2.112-0.366-2.935-1.033-0.43-0.347-0.795-0.768-1.079-1.234-0.603 0.366-1.317 0.576-2.039 0.576-1.746 0-3.255-1.161-3.749-2.77-0.805-0.082-1.573-0.421-2.194-0.96-0.841-0.75-1.317-1.819-1.317-2.935 0-2.030 1.545-3.703 3.52-3.904 0.21-0.64 0.576-1.216 1.079-1.682 0.722-0.677 1.664-1.042 2.661-1.042 0.722 0 1.417 0.201 2.021 0.567 0.283-0.475 0.649-0.905 1.079-1.253 0.832-0.677 1.883-1.051 2.953-1.051 1.079 0 2.13 0.375 2.962 1.051 0.43 0.347 0.795 0.777 1.079 1.253 0.603-0.366 1.298-0.567 2.021-0.567 0.987 0 1.938 0.366 2.661 1.042 0.503 0.466 0.869 1.042 1.079 1.682 0.805 0.082 1.582 0.421 2.203 0.96 0.841 0.75 1.317 1.819 1.317 2.944 0 1.115-0.475 2.185-1.317 2.935-0.622 0.539-1.39 0.878-2.194 0.96-0.494 1.609-2.002 2.77-3.749 2.77-0.722 0-1.435-0.21-2.039-0.576-0.283 0.466-0.649 0.887-1.079 1.234-0.823 0.667-1.874 1.033-2.944 1.033z"></path>
<path fill="#f6efea" style="fill: var(--color5, #f6efea)" d="M25.317 16.146c-0.622-0.539-1.399-0.878-2.203-0.96-0.21-0.64-0.576-1.216-1.079-1.682-0.722-0.677-1.673-1.042-2.661-1.042-0.722 0-1.417 0.201-2.021 0.567-0.283-0.475-0.649-0.905-1.079-1.253-0.832-0.677-1.883-1.051-2.962-1.051v16.722c1.070 0 2.121-0.366 2.944-1.033 0.43-0.347 0.795-0.768 1.079-1.234 0.603 0.366 1.317 0.576 2.039 0.576 1.746 0 3.255-1.161 3.749-2.77 0.805-0.082 1.573-0.421 2.194-0.96 0.841-0.75 1.317-1.819 1.317-2.935 0-1.125-0.475-2.194-1.317-2.944z"></path>
</symbol>
<symbol id="icon-clouds-and-sun" viewBox="0 0 32 32">
<path fill="#fdbf00" style="fill: var(--color6, #fdbf00)" d="M19.209 21.202c-3.84 0-6.994-3.118-7.022-6.967-0.037-3.877 3.081-7.058 6.967-7.095 0.018 0 0.037 0 0.064 0 3.84 0 6.994 3.109 7.031 6.967 0.027 3.877-3.090 7.058-6.967 7.095-0.027 0-0.046 0-0.073 0z"></path>
<path fill="#ff8856" style="fill: var(--color7, #ff8856)" d="M19.218 7.141c0 0 0 0 0 0v14.062c0.018 0 0.037 0 0.064 0 3.877-0.037 6.994-3.218 6.967-7.095-0.037-3.858-3.191-6.967-7.031-6.967z"></path>
<path fill="#fdbf00" style="fill: var(--color6, #fdbf00)" d="M19.246 5.806c-0.521 0-0.933-0.421-0.942-0.933l-0.027-2.542c0-0.512 0.411-0.942 0.933-0.942h0.009c0.512 0 0.933 0.411 0.942 0.923l0.018 2.542c0.009 0.521-0.411 0.942-0.923 0.951-0.009 0-0.009 0-0.009 0z"></path>
<path fill="#ff8856" style="fill: var(--color7, #ff8856)" d="M28.517 15.022c-0.512 0-0.933-0.411-0.933-0.933-0.009-0.512 0.411-0.942 0.923-0.942l2.551-0.027c0.512 0 0.933 0.421 0.942 0.933 0 0.521-0.411 0.942-0.933 0.942l-2.542 0.027c0 0 0 0-0.009 0z"></path>
<path fill="#ff8856" style="fill: var(--color7, #ff8856)" d="M25.847 8.466c-0.238 0-0.475-0.091-0.658-0.265-0.366-0.366-0.375-0.96-0.009-1.326l1.774-1.81c0.366-0.375 0.96-0.375 1.326-0.018 0.375 0.366 0.375 0.96 0.018 1.326l-1.783 1.81c-0.183 0.192-0.421 0.283-0.667 0.283z"></path>
<path fill="#fdbf00" style="fill: var(--color6, #fdbf00)" d="M12.69 8.585c-0.238 0-0.475-0.091-0.658-0.265l-1.81-1.783c-0.375-0.357-0.375-0.951-0.018-1.326 0.366-0.366 0.96-0.375 1.326-0.009l1.81 1.783c0.375 0.357 0.375 0.951 0.018 1.326-0.183 0.183-0.43 0.274-0.667 0.274z"></path>
<path fill="#ff8856" style="fill: var(--color7, #ff8856)" d="M22.821 6.482c-0.119 0-0.238-0.027-0.357-0.073-0.475-0.192-0.704-0.741-0.512-1.216l0.951-2.35c0.192-0.485 0.741-0.713 1.225-0.521 0.475 0.192 0.704 0.741 0.512 1.225l-0.951 2.35c-0.146 0.366-0.503 0.585-0.869 0.585z"></path>
<path fill="#ff8856" style="fill: var(--color7, #ff8856)" d="M30.309 19.547c-0.119 0-0.238-0.018-0.357-0.064l-2.35-0.951c-0.485-0.192-0.713-0.741-0.521-1.225 0.201-0.475 0.741-0.713 1.225-0.512l2.35 0.951c0.485 0.192 0.713 0.741 0.521 1.216-0.146 0.366-0.503 0.585-0.869 0.585z"></path>
<path fill="#fdbf00" style="fill: var(--color6, #fdbf00)" d="M10.697 11.611c-0.11 0-0.229-0.018-0.347-0.064l-2.35-0.951c-0.485-0.201-0.713-0.741-0.521-1.225 0.192-0.475 0.741-0.713 1.225-0.512l2.35 0.951c0.475 0.192 0.713 0.741 0.521 1.216-0.155 0.366-0.503 0.585-0.878 0.585z"></path>
<path fill="#ff8856" style="fill: var(--color7, #ff8856)" d="M27.895 11.474c-0.366 0-0.713-0.21-0.859-0.567-0.201-0.475 0.018-1.033 0.494-1.234l2.341-0.987c0.475-0.201 1.024 0.018 1.225 0.494 0.201 0.485-0.018 1.033-0.494 1.234l-2.341 0.987c-0.119 0.055-0.238 0.073-0.366 0.073z"></path>
<path fill="#fdbf00" style="fill: var(--color6, #fdbf00)" d="M15.698 6.537c-0.366 0-0.713-0.21-0.869-0.567l-0.987-2.341c-0.201-0.475 0.018-1.024 0.503-1.225 0.475-0.21 1.024 0.018 1.225 0.494l0.987 2.341c0.201 0.475-0.018 1.024-0.494 1.225-0.119 0.055-0.247 0.073-0.366 0.073z"></path>
<path fill="#fff4f4" style="fill: var(--color4, #fff4f4)" d="M13.934 30.601c-1.115 0-2.194-0.384-3.063-1.079-0.457-0.366-0.841-0.823-1.143-1.326-0.64 0.402-1.381 0.622-2.158 0.622-1.819 0-3.392-1.216-3.895-2.898-0.85-0.082-1.655-0.43-2.304-1.006-0.878-0.768-1.371-1.883-1.371-3.045 0-2.112 1.618-3.858 3.685-4.050 0.21-0.677 0.594-1.289 1.125-1.783 0.759-0.695 1.737-1.079 2.761-1.079 0.768 0 1.509 0.219 2.149 0.613 0.293-0.512 0.677-0.969 1.143-1.344 0.859-0.704 1.957-1.088 3.072-1.088s2.213 0.384 3.072 1.088c0.466 0.375 0.85 0.832 1.143 1.344 0.64-0.393 1.381-0.613 2.149-0.613 1.024 0 2.002 0.384 2.761 1.079 0.53 0.494 0.914 1.106 1.125 1.783 0.85 0.082 1.664 0.43 2.313 1.006 0.878 0.768 1.371 1.883 1.371 3.045s-0.494 2.277-1.371 3.045c-0.649 0.576-1.454 0.923-2.304 1.006-0.503 1.682-2.075 2.898-3.895 2.898-0.777 0-1.527-0.219-2.167-0.622-0.293 0.503-0.677 0.96-1.134 1.326-0.869 0.695-1.957 1.079-3.063 1.079z"></path>
<path fill="#f6efea" style="fill: var(--color5, #f6efea)" d="M26.496 18.825c-0.649-0.576-1.463-0.923-2.313-1.006-0.21-0.677-0.594-1.289-1.125-1.783-0.759-0.695-1.737-1.079-2.761-1.079-0.768 0-1.509 0.219-2.149 0.613-0.293-0.512-0.677-0.969-1.143-1.344-0.859-0.704-1.957-1.088-3.072-1.088v17.463c1.106 0 2.194-0.384 3.063-1.079 0.457-0.366 0.841-0.823 1.134-1.326 0.64 0.402 1.39 0.622 2.167 0.622 1.819 0 3.392-1.216 3.895-2.898 0.85-0.082 1.655-0.43 2.304-1.006 0.878-0.768 1.371-1.883 1.371-3.045s-0.494-2.277-1.371-3.045z"></path>
<path fill="#ff8856" style="fill: var(--color7, #ff8856)" d="M20.16 2.313c-0.009-0.512-0.43-0.923-0.942-0.923 0 0 0 0 0 0v4.407c0.009 0 0.018 0.009 0.027 0.009h0.009c0.512-0.009 0.933-0.43 0.923-0.951l-0.018-2.542z"></path>
</symbol>
<symbol id="icon-snow" viewBox="0 0 32 32">
<path fill="#7dd5f4" style="fill: var(--color8, #7dd5f4)" d="M19.529 28.434c0-0.521-0.421-0.942-0.942-0.942h-0.329l0.238-0.229c0.366-0.366 0.366-0.96 0-1.326s-0.96-0.366-1.326 0l-0.238 0.229v-0.357c0-0.521-0.421-0.942-0.933-0.942-0.521 0-0.942 0.421-0.942 0.942v0.357l-0.256-0.256c-0.366-0.366-0.96-0.366-1.326 0s-0.366 0.96 0 1.326l0.256 0.256h-0.329c-0.521 0-0.942 0.421-0.942 0.942 0 0.512 0.421 0.933 0.942 0.933h0.329l-0.238 0.238c-0.366 0.366-0.366 0.96 0 1.326 0.183 0.183 0.43 0.274 0.667 0.274s0.475-0.091 0.658-0.274l0.238-0.238v0.366c0 0.521 0.421 0.942 0.933 0.942 0.521 0 0.942-0.421 0.942-0.942v-0.366l0.256 0.256c0.183 0.183 0.421 0.274 0.667 0.274 0.238 0 0.475-0.091 0.658-0.274 0.366-0.366 0.366-0.96 0-1.326l-0.256-0.256h0.329c0.521 0 0.942-0.421 0.942-0.933z"></path>
<path fill="#7dd5f4" style="fill: var(--color8, #7dd5f4)" d="M7.058 22.491c0-0.512-0.421-0.933-0.942-0.933h-0.329l0.238-0.238c0.366-0.366 0.366-0.96 0-1.326s-0.96-0.366-1.326 0l-0.238 0.238v-0.366c0-0.512-0.421-0.933-0.933-0.933-0.521 0-0.942 0.421-0.942 0.933v0.366l-0.256-0.256c-0.366-0.366-0.96-0.366-1.326 0s-0.366 0.96 0 1.326l0.256 0.256h-0.329c-0.521 0-0.933 0.421-0.933 0.933 0 0.521 0.411 0.942 0.933 0.942h0.329l-0.229 0.238c-0.366 0.366-0.366 0.96 0 1.326 0.183 0.183 0.421 0.274 0.658 0.274s0.485-0.091 0.667-0.274l0.229-0.238v0.366c0 0.512 0.421 0.933 0.942 0.933 0.512 0 0.933-0.421 0.933-0.933v-0.366l0.256 0.256c0.183 0.183 0.43 0.274 0.667 0.274s0.475-0.091 0.658-0.274c0.366-0.366 0.366-0.96 0-1.326l-0.256-0.256h0.329c0.521 0 0.942-0.421 0.942-0.942z"></path>
<path fill="#4793ff" style="fill: var(--color9, #4793ff)" d="M32 22.491c0-0.512-0.421-0.933-0.942-0.933h-0.329l0.229-0.238c0.366-0.366 0.366-0.96 0-1.326s-0.96-0.366-1.326 0l-0.229 0.238v-0.366c0-0.512-0.421-0.933-0.942-0.933-0.512 0-0.933 0.421-0.933 0.933v0.366l-0.256-0.256c-0.366-0.366-0.96-0.366-1.326 0s-0.366 0.96 0 1.326l0.256 0.256h-0.329c-0.521 0-0.942 0.421-0.942 0.933 0 0.521 0.421 0.942 0.942 0.942h0.329l-0.238 0.238c-0.366 0.366-0.366 0.96 0 1.326 0.183 0.183 0.421 0.274 0.667 0.274 0.238 0 0.475-0.091 0.658-0.274l0.238-0.238v0.366c0 0.512 0.421 0.933 0.933 0.933 0.521 0 0.942-0.421 0.942-0.933v-0.366l0.256 0.256c0.183 0.183 0.421 0.274 0.658 0.274 0.247 0 0.485-0.091 0.667-0.274 0.366-0.366 0.366-0.96 0-1.326l-0.256-0.256h0.329c0.521 0 0.942-0.421 0.942-0.942z"></path>
<path fill="#fff4f4" style="fill: var(--color4, #fff4f4)" d="M10.779 23.369c0.512 0 0.933-0.421 0.933-0.933 0-0.521-0.421-0.942-0.933-0.942-0.521 0-0.942 0.421-0.942 0.942 0 0.512 0.421 0.933 0.942 0.933z"></path>
<path fill="#fff4f4" style="fill: var(--color4, #fff4f4)" d="M21.211 23.369c0.521 0 0.942-0.421 0.942-0.933 0-0.521-0.421-0.942-0.942-0.942-0.512 0-0.933 0.421-0.933 0.942 0 0.512 0.421 0.933 0.933 0.933z"></path>
<path fill="#fff4f4" style="fill: var(--color4, #fff4f4)" d="M5.687 32c0.512 0 0.933-0.43 0.933-0.942 0-0.521-0.421-0.942-0.933-0.942-0.521 0-0.942 0.421-0.942 0.942 0 0.512 0.421 0.942 0.942 0.942z"></path>
<path fill="#fff4f4" style="fill: var(--color4, #fff4f4)" d="M26.304 32c0.521 0 0.942-0.43 0.942-0.942 0-0.521-0.421-0.942-0.942-0.942-0.512 0-0.933 0.421-0.933 0.942 0 0.512 0.421 0.942 0.933 0.942z"></path>
<path fill="#fff4f4" style="fill: var(--color4, #fff4f4)" d="M15.991 19.931c-1.253 0-2.478-0.43-3.447-1.216-0.558-0.448-1.024-1.006-1.362-1.627-0.75 0.503-1.637 0.786-2.56 0.786-2.075 0-3.867-1.417-4.398-3.365-0.987-0.064-1.929-0.457-2.688-1.125-0.978-0.869-1.536-2.112-1.536-3.419 0-2.414 1.874-4.389 4.242-4.553 0.219-0.795 0.667-1.518 1.28-2.094 0.85-0.786 1.947-1.216 3.099-1.216 0.914 0 1.792 0.274 2.542 0.768 0.338-0.622 0.805-1.189 1.362-1.646 0.978-0.795 2.213-1.225 3.465-1.225 1.262 0 2.496 0.43 3.474 1.225 0.558 0.457 1.024 1.024 1.362 1.646 0.75-0.494 1.627-0.768 2.542-0.768 1.152 0 2.249 0.43 3.099 1.216 0.613 0.576 1.061 1.298 1.289 2.094 0.987 0.073 1.938 0.466 2.697 1.134 0.978 0.859 1.545 2.112 1.545 3.419s-0.567 2.551-1.545 3.419c-0.759 0.667-1.701 1.061-2.688 1.125-0.53 1.947-2.322 3.365-4.398 3.365-0.923 0-1.81-0.283-2.56-0.786-0.338 0.622-0.805 1.179-1.362 1.627-0.969 0.786-2.194 1.216-3.456 1.216z"></path>
<path fill="#f6efea" style="fill: var(--color5, #f6efea)" d="M30.455 6.546c-0.759-0.667-1.71-1.061-2.697-1.134-0.229-0.795-0.677-1.518-1.289-2.094-0.85-0.786-1.947-1.216-3.099-1.216-0.914 0-1.792 0.274-2.542 0.768-0.338-0.622-0.805-1.189-1.362-1.646-0.978-0.795-2.213-1.225-3.465-1.225v19.931c1.253 0 2.478-0.43 3.447-1.216 0.558-0.448 1.024-1.006 1.362-1.627 0.75 0.503 1.637 0.786 2.56 0.786 2.075 0 3.867-1.417 4.398-3.365 0.987-0.064 1.929-0.457 2.688-1.125 0.978-0.869 1.545-2.112 1.545-3.419s-0.567-2.56-1.545-3.419z"></path>
<path fill="#4793ff" style="fill: var(--color9, #4793ff)" d="M19.529 28.434c0-0.521-0.421-0.942-0.942-0.942h-0.329l0.238-0.229c0.366-0.366 0.366-0.96 0-1.326s-0.96-0.366-1.326 0l-0.238 0.229v-0.357c0-0.521-0.421-0.942-0.933-0.942v7.131c0.512 0 0.933-0.421 0.933-0.942v-0.366l0.256 0.256c0.183 0.183 0.421 0.274 0.667 0.274 0.238 0 0.475-0.091 0.658-0.274 0.366-0.366 0.366-0.96 0-1.326l-0.256-0.256h0.329c0.521 0 0.942-0.421 0.942-0.933z"></path>
</symbol>
<symbol id="icon-sun-snow" viewBox="0 0 32 32">
<path fill="#fdbf00" style="fill: var(--color6, #fdbf00)" d="M16 25.372c-5.175 0-9.381-4.206-9.381-9.381 0-5.166 4.206-9.371 9.381-9.371 0.512 0 0.933 0.421 0.933 0.942v16.869c0 0.521-0.421 0.942-0.933 0.942z"></path>
<path fill="#7dd5f4" style="fill: var(--color8, #7dd5f4)" d="M31.058 15.058h-1.454l0.713-1.234c0.256-0.448 0.101-1.024-0.347-1.28-0.448-0.265-1.024-0.11-1.28 0.338l-1.253 2.176h-9.179l6.491-6.491 2.423 0.649c0.082 0.027 0.165 0.037 0.247 0.037 0.411 0 0.786-0.274 0.905-0.695 0.128-0.503-0.165-1.015-0.667-1.152l-1.381-0.366 0.942-0.942c0.366-0.366 0.366-0.96 0-1.326s-0.96-0.366-1.326 0l-0.942 0.942-0.366-1.381c-0.137-0.503-0.649-0.795-1.152-0.667-0.494 0.137-0.795 0.649-0.658 1.152l0.649 2.423-6.491 6.491v-9.179l2.176-1.253c0.448-0.256 0.603-0.832 0.338-1.28-0.256-0.448-0.832-0.603-1.28-0.347l-1.234 0.713v-1.454c0-0.521-0.421-0.933-0.933-0.933-0.521 0-0.942 0.411-0.942 0.933v30.126c0 0.521 0.421 0.933 0.942 0.933 0.512 0 0.933-0.411 0.933-0.933v-1.454l1.234 0.713c0.155 0.082 0.311 0.119 0.475 0.119 0.32 0 0.631-0.165 0.805-0.466 0.265-0.448 0.11-1.024-0.338-1.28l-2.176-1.253v-9.179l6.491 6.491-0.649 2.423c-0.137 0.503 0.165 1.015 0.658 1.152 0.082 0.018 0.165 0.027 0.247 0.027 0.411 0 0.795-0.274 0.905-0.695l0.366-1.381 0.942 0.942c0.183 0.183 0.43 0.274 0.667 0.274s0.475-0.091 0.658-0.274c0.366-0.366 0.366-0.96 0-1.326l-0.942-0.942 1.381-0.366c0.503-0.137 0.795-0.649 0.667-1.152-0.137-0.503-0.649-0.795-1.152-0.658l-2.423 0.649-6.491-6.491h9.179l1.253 2.176c0.174 0.302 0.494 0.466 0.814 0.466 0.155 0 0.32-0.037 0.466-0.128 0.448-0.256 0.603-0.832 0.347-1.28l-0.713-1.234h1.454c0.521 0 0.942-0.421 0.942-0.942 0-0.512-0.421-0.933-0.942-0.933z"></path>
<path fill="#fdbf00" style="fill: var(--color6, #fdbf00)" d="M3.941 16.933h-3.008c-0.521 0-0.933-0.421-0.933-0.942 0-0.512 0.411-0.933 0.933-0.933h3.008c0.512 0 0.933 0.421 0.933 0.933 0 0.521-0.421 0.942-0.933 0.942z"></path>
<path fill="#fdbf00" style="fill: var(--color6, #fdbf00)" d="M7.47 8.402c-0.238 0-0.485-0.091-0.667-0.274l-2.121-2.121c-0.366-0.366-0.366-0.96 0-1.326s0.96-0.366 1.326 0l2.121 2.121c0.366 0.366 0.366 0.96 0 1.326-0.183 0.183-0.421 0.274-0.658 0.274z"></path>
<path fill="#fdbf00" style="fill: var(--color6, #fdbf00)" d="M5.349 27.584c-0.247 0-0.485-0.091-0.667-0.274-0.366-0.366-0.366-0.96 0-1.326l2.121-2.121c0.366-0.366 0.96-0.366 1.326 0s0.366 0.96 0 1.326l-2.121 2.121c-0.183 0.183-0.421 0.274-0.658 0.274z"></path>
<path fill="#fdbf00" style="fill: var(--color6, #fdbf00)" d="M11.474 5.751c-0.366 0-0.722-0.219-0.869-0.585l-1.125-2.779c-0.192-0.485 0.037-1.033 0.521-1.225 0.475-0.192 1.024 0.037 1.216 0.521l1.125 2.779c0.192 0.485-0.037 1.033-0.512 1.225-0.119 0.046-0.238 0.064-0.357 0.064z"></path>
<path fill="#fdbf00" style="fill: var(--color6, #fdbf00)" d="M2.030 22.583c-0.366 0-0.722-0.229-0.869-0.594-0.192-0.475 0.037-1.024 0.521-1.216l2.779-1.125c0.485-0.192 1.033 0.037 1.225 0.512 0.192 0.485-0.037 1.033-0.521 1.225l-2.779 1.125c-0.119 0.046-0.238 0.073-0.357 0.073z"></path>
<path fill="#fdbf00" style="fill: var(--color6, #fdbf00)" d="M10.286 30.866c-0.119 0-0.238-0.018-0.357-0.064-0.485-0.201-0.713-0.75-0.512-1.225l1.134-2.779c0.201-0.475 0.75-0.704 1.225-0.512 0.485 0.201 0.713 0.741 0.512 1.225l-1.134 2.779c-0.155 0.357-0.503 0.576-0.869 0.576z"></path>
<path fill="#fdbf00" style="fill: var(--color6, #fdbf00)" d="M4.837 12.361c-0.119 0-0.238-0.027-0.357-0.073l-2.779-1.134c-0.475-0.201-0.704-0.75-0.512-1.225 0.201-0.485 0.75-0.713 1.225-0.512l2.779 1.134c0.475 0.201 0.704 0.75 0.512 1.225-0.146 0.366-0.503 0.585-0.869 0.585z"></path>
<path fill="#4793ff" style="fill: var(--color9, #4793ff)" d="M31.058 15.058h-1.454l0.713-1.234c0.256-0.448 0.101-1.024-0.347-1.28-0.448-0.265-1.024-0.11-1.28 0.338l-1.253 2.176h-9.179l6.491-6.491 2.423 0.649c0.082 0.027 0.165 0.037 0.247 0.037 0.411 0 0.786-0.274 0.905-0.695 0.128-0.503-0.165-1.015-0.667-1.152l-1.381-0.366 0.942-0.942c0.366-0.366 0.366-0.96 0-1.326s-0.96-0.366-1.326 0l-0.942 0.942-0.366-1.381c-0.137-0.503-0.649-0.795-1.152-0.667-0.494 0.137-0.795 0.649-0.658 1.152l0.649 2.423-6.491 6.491v-9.179l2.176-1.253c0.448-0.256 0.603-0.832 0.338-1.28-0.256-0.448-0.832-0.603-1.28-0.347l-1.234 0.713v-1.454c0-0.521-0.421-0.933-0.933-0.933v31.991c0.512 0 0.933-0.411 0.933-0.933v-1.454l1.234 0.713c0.155 0.082 0.311 0.119 0.475 0.119 0.32 0 0.631-0.165 0.805-0.466 0.265-0.448 0.11-1.024-0.338-1.28l-2.176-1.253v-9.179l6.491 6.491-0.649 2.423c-0.137 0.503 0.165 1.015 0.658 1.152 0.082 0.018 0.165 0.027 0.247 0.027 0.411 0 0.795-0.274 0.905-0.695l0.366-1.381 0.942 0.942c0.183 0.183 0.43 0.274 0.667 0.274s0.475-0.091 0.658-0.274c0.366-0.366 0.366-0.96 0-1.326l-0.942-0.942 1.381-0.366c0.503-0.137 0.795-0.649 0.667-1.152-0.137-0.503-0.649-0.795-1.152-0.658l-2.423 0.649-6.491-6.491h9.179l1.253 2.176c0.174 0.302 0.494 0.466 0.814 0.466 0.155 0 0.32-0.037 0.466-0.128 0.448-0.256 0.603-0.832 0.347-1.28l-0.713-1.234h1.454c0.521 0 0.942-0.421 0.942-0.942 0-0.512-0.421-0.933-0.942-0.933z"></path>
</symbol>
<symbol id="icon-arrow" viewBox="0 0 20 32">
<path stroke-linejoin="miter" stroke-linecap="butt" stroke-miterlimit="4" stroke-width="5.2976" d="M1.872 1.872l14.127 14.127-14.127 14.127"></path>
</symbol>
<symbol id="icon-Star" viewBox="0 0 34 32">
<path d="M16.821-0l3.972 12.222h12.849l-10.404 7.542 3.972 12.222-10.388-7.542-10.404 7.542 3.972-12.222-10.388-7.542h12.849l3.972-12.222zM16.821 5.194l-2.814 8.636h-9.070l7.349 5.323-2.814 8.636 7.349-5.339 7.333 5.339-2.798-8.636 7.333-5.323h-9.070l-2.798-8.636z"></path>
</symbol>
<symbol id="icon-x-close" viewBox="0 0 32 32">
<path stroke-linejoin="round" stroke-linecap="round" stroke-miterlimit="4" stroke-width="2.2857" d="M24 8l-16 16"></path>
<path stroke-linejoin="round" stroke-linecap="round" stroke-miterlimit="4" stroke-width="2.2857" d="M8 8l16 16"></path>
</symbol>
</defs>
</svg>
